<svg width="100" height="100" viewBox="0 0 100 100" fill="none" xmlns="http://www.w3.org/2000/svg">
<g clip-path="url(#clip0)">
<path d="M2.51447 81.0479L43.726 11.3971C46.5609 6.60597 53.4408 6.60597 56.2757 11.3971L97.4873 81.048C100.394 85.961 96.8848 92.1961 91.2123 92.1961H8.78941C3.11695 92.1959 -0.392457 85.961 2.51447 81.0479V81.0479Z" fill="#FD474D"/>
<path d="M35.7617 92.1961H91.2113C96.8835 92.1961 100.393 85.9612 97.4862 81.048L67.3752 30.1582C68.5679 35.2455 69.143 41.0016 68.5179 47.28C65.5608 76.9844 38.5067 90.8341 36.754 91.6942C36.4173 91.8684 36.0877 92.0344 35.7617 92.1961V92.1961Z" fill="#FB2B32"/>
<path d="M8.78732 86.35C7.58784 86.3088 6.92092 85.1962 7.55464 84.0442L48.7662 14.3934C49.403 13.3952 50.6123 13.4083 51.2316 14.3934L92.4429 84.0442C93.0794 85.2007 92.4181 86.308 91.2102 86.35H8.78732Z" fill="#FED402"/>
<path d="M68.7396 43.9832C68.7011 45.0653 68.6296 46.164 68.5185 47.2799C66.5517 67.037 53.926 79.7777 45.1738 86.3501H91.2107C92.4186 86.3083 93.0798 85.2008 92.4434 84.0442L68.7396 43.9832Z" fill="#F7BC09"/>
<path d="M50.0008 64.9644C48.9567 64.9644 48.0879 64.1621 48.0049 63.1214L46.0791 38.9856C45.8965 36.6968 47.7047 34.7386 50.0008 34.7386C52.2968 34.7386 54.105 36.6968 53.9224 38.9856L51.9967 63.1214C51.9139 64.1621 51.045 64.9644 50.0008 64.9644Z" fill="#554E56"/>
<path d="M50.002 76.9784C51.7387 76.9784 53.1466 75.5706 53.1466 73.8338C53.1466 72.0971 51.7387 70.6892 50.002 70.6892C48.2653 70.6892 46.8574 72.0971 46.8574 73.8338C46.8574 75.5706 48.2653 76.9784 50.002 76.9784Z" fill="#554E56"/>
<path d="M52.4921 13.6476C52.4855 13.6363 52.4786 13.6249 52.4716 13.6138C51.9072 12.7215 50.9854 12.185 50.0012 12.185C49.0222 12.185 48.0994 12.7156 47.5315 13.6056C47.5227 13.6195 47.5141 13.6333 47.5057 13.6474L6.29418 83.2986C6.28637 83.3117 6.27875 83.3249 6.27152 83.3384C5.18101 85.3353 6.40081 87.7345 8.73709 87.8139C8.75388 87.8145 8.77068 87.8147 8.78747 87.8147H71.5716C72.3805 87.8147 73.0363 87.1589 73.0363 86.35C73.0363 85.5411 72.3805 84.8853 71.5716 84.8853C71.5439 84.8853 8.80935 84.8867 8.78318 84.881C8.80505 84.8176 49.9619 15.2646 49.9988 15.1865C50.0441 15.2753 91.1965 84.7824 91.2155 84.8812C91.1784 84.8906 77.4708 84.8855 77.4304 84.8855C76.6215 84.8855 75.9657 85.5413 75.9657 86.3502C75.9657 87.1591 76.6215 87.8149 77.4304 87.8149C77.4688 87.8149 91.2242 87.8153 91.2613 87.8141C93.5664 87.7364 94.8397 85.3484 93.7263 83.3382C93.7244 83.3351 52.4999 13.6609 52.4921 13.6476V13.6476ZM53.9664 35.0102C52.9475 33.9068 51.5018 33.2739 50 33.2739C48.4982 33.2739 47.0525 33.9066 46.0336 35.0102C45.0148 36.1136 44.4988 37.6051 44.6183 39.1024L45.3706 48.5301C45.4348 49.3365 46.1402 49.9384 46.9472 49.8735C47.7536 49.8093 48.3551 49.1035 48.2906 48.2969L47.5383 38.8692C47.4829 38.1743 47.7129 37.5096 48.1857 36.9975C48.6587 36.4855 49.303 36.2034 50 36.2034C50.697 36.2034 51.3413 36.4855 51.8143 36.9975C52.2871 37.5098 52.5171 38.1743 52.4617 38.8692L50.5359 63.0052C50.5138 63.2825 50.2783 63.4999 50 63.4999C49.7217 63.4999 49.4862 63.2825 49.4641 63.005L48.6982 53.4044C48.6339 52.598 47.9285 51.9961 47.1216 52.061C46.3152 52.1252 45.7137 52.831 45.7782 53.6376L46.5441 63.238C46.6867 65.0276 48.2047 66.4294 50 66.4294C51.7953 66.4294 53.3133 65.0276 53.4559 63.2382L55.3817 39.1026C55.5012 37.6053 54.9854 36.1136 53.9664 35.0102ZM98.7469 80.3022L57.5355 10.6512C55.9379 7.9511 53.121 6.33896 50.0002 6.33896C46.8794 6.33896 44.0623 7.9509 42.4648 10.6512L1.2531 80.3022C-0.392239 83.083 -0.418799 86.4192 1.18221 89.2267C2.76544 92.0032 5.6089 93.6608 8.78845 93.6608H91.2115C94.3911 93.6608 97.2346 92.0032 98.8178 89.2267C100.419 86.4192 100.392 83.083 98.7469 80.3022ZM96.2731 87.7755C95.2178 89.6262 93.3256 90.7312 91.2117 90.7312H8.78845C6.67461 90.7312 4.78242 89.6262 3.72706 87.7755C2.65393 85.8936 2.67151 83.6575 3.77432 81.7939L44.9857 12.143C46.0508 10.343 47.9252 9.26854 50 9.26854C52.0748 9.26854 53.9494 10.343 55.0143 12.143L96.2257 81.7939C97.3285 83.6577 97.3463 85.8938 96.2731 87.7755ZM50 69.2248C47.4585 69.2248 45.3907 71.2926 45.3907 73.8341C45.3907 76.3757 47.4585 78.4434 50 78.4434C52.5415 78.4434 54.6093 76.3757 54.6093 73.8341C54.6093 71.2926 52.5415 69.2248 50 69.2248ZM50 75.514C49.0737 75.514 48.3201 74.7604 48.3201 73.8341C48.3201 72.9079 49.0737 72.1542 50 72.1542C50.9263 72.1542 51.6799 72.9079 51.6799 73.8341C51.6799 74.7604 50.9263 75.514 50 75.514Z" fill="#0D0C22"/>
</g>
<defs>
<clipPath id="clip0">
<rect width="100" height="100" fill="white"/>
</clipPath>
</defs>
</svg>
