<svg width="100" height="100" viewBox="0 0 100 100" fill="none" xmlns="http://www.w3.org/2000/svg">
<path d="M51.5261 41.5421C38.6128 28.6305 24.4533 21.8548 19.8985 26.408C19.3986 26.9316 19.0309 27.5665 18.8255 28.2606L18.7522 28.1873L14.4023 46.0137L10.0706 63.7868L4.93595 84.8319L1.68555 98.1601L20.9297 90.8779L45.4069 81.6165L64.9342 74.2277L64.9109 74.2044C65.5646 73.9959 66.1627 73.6423 66.6602 73.1698C71.2151 68.6149 64.4394 54.4554 51.5261 41.5421Z" fill="#F4494E"/>
<path d="M51.5259 41.5369C38.6131 28.6241 24.4532 21.8482 19.8989 26.4025C15.3446 30.9568 22.1205 45.1167 35.0333 58.0295C47.9462 70.9423 62.1061 77.7182 66.6603 73.1639C71.2146 68.6096 64.4387 54.4497 51.5259 41.5369Z" fill="#D1E3EE"/>
<path d="M63.1616 74.8043C60.83 74.8452 58.5167 74.3862 56.3776 73.4582L40.4171 79.4975L15.9317 88.7506L2.80178 93.7186L1.68555 98.2952L20.9297 91.013L45.4068 81.7516L63.3282 74.9709L63.1616 74.8043Z" fill="#B21D48"/>
<path d="M83.3201 61.6424C83.1206 61.6418 82.9227 61.6062 82.7353 61.5375C74.2776 58.3689 65.1351 57.4805 56.2256 58.9618L50.2746 59.9531C49.3637 60.083 48.5199 59.4499 48.3899 58.539C48.2644 57.659 48.8518 56.8353 49.7248 56.6677L55.6775 55.6681C65.1642 54.0918 74.8986 55.0371 83.9049 58.4087C84.7708 58.7198 85.2204 59.674 84.9093 60.5399C84.6689 61.2088 84.0308 61.6516 83.3201 61.6424Z" fill="#FFBF41"/>
<path d="M53.334 51.6464C52.4139 51.641 51.6723 50.8906 51.6778 49.9706C51.6815 49.3354 52.046 48.7577 52.6176 48.4809L87.604 31.8208C88.4349 31.4251 89.4291 31.7779 89.8248 32.6088C90.2205 33.4397 89.8677 34.4339 89.0368 34.8296L54.0504 51.4898C53.8263 51.5945 53.5814 51.648 53.334 51.6464Z" fill="#FFBF41"/>
<path d="M33.8505 48.3144C33.6307 48.3148 33.4131 48.2713 33.2107 48.1861C32.3615 47.8319 31.9602 46.8564 32.3144 46.0072V46.007L34.7368 40.1942C38.4639 31.2883 39.3329 21.4447 37.2241 12.0236C37.008 11.1291 37.558 10.229 38.4522 10.0129C39.3467 9.79672 40.2467 10.3467 40.4629 11.2409C40.4677 11.2607 40.472 11.2805 40.4762 11.3005C42.7353 21.3926 41.8038 31.9373 37.8106 41.4771L35.3865 47.2898C35.1279 47.9098 34.5223 48.3138 33.8505 48.3144Z" fill="#FFBF41"/>
<path d="M91.6504 68.3069C93.4906 68.3069 94.9824 66.8151 94.9824 64.9749C94.9824 63.1346 93.4906 61.6428 91.6504 61.6428C89.8102 61.6428 88.3184 63.1346 88.3184 64.9749C88.3184 66.8151 89.8102 68.3069 91.6504 68.3069Z" fill="#D5557E"/>
<path d="M51.666 21.6583C53.5062 21.6583 54.9981 20.1665 54.9981 18.3262C54.9981 16.486 53.5062 14.9942 51.666 14.9942C49.8258 14.9942 48.334 16.486 48.334 18.3262C48.334 20.1665 49.8258 21.6583 51.666 21.6583Z" fill="#DD95C1"/>
<path d="M36.6719 6.66407C34.8316 6.66407 33.3398 5.17236 33.3398 3.33204C33.3398 1.49171 34.8316 0 36.6719 0C38.5122 0 40.0039 1.49171 40.0039 3.33204C40.0039 5.17236 38.5122 6.66407 36.6719 6.66407Z" fill="#7FCCCB"/>
<path d="M83.3203 13.3282C82.4003 13.3282 81.6543 12.5822 81.6543 11.6621V9.99613C81.6543 9.07607 82.4003 8.33011 83.3203 8.33011C84.2404 8.33011 84.9863 9.07607 84.9863 9.99613V11.6621C84.9863 12.5822 84.2404 13.3282 83.3203 13.3282Z" fill="#4E51A6"/>
<path d="M83.3203 4.99805C82.4003 4.99805 81.6543 4.25209 81.6543 3.33204V1.66602C81.6543 0.745959 82.4003 0 83.3203 0C84.2404 0 84.9863 0.745959 84.9863 1.66602V3.33204C84.9863 4.25209 84.2404 4.99805 83.3203 4.99805Z" fill="#4E51A6"/>
<path d="M88.3184 8.3301H86.6523C85.7323 8.3301 84.9863 7.58414 84.9863 6.66408C84.9863 5.74402 85.7323 4.99806 86.6523 4.99806H88.3184C89.2384 4.99806 89.9844 5.74402 89.9844 6.66408C89.9844 7.58414 89.2384 8.3301 88.3184 8.3301Z" fill="#4E51A6"/>
<path d="M79.9883 8.3301H78.3223C77.4022 8.3301 76.6562 7.58414 76.6562 6.66408C76.6562 5.74402 77.4022 4.99806 78.3223 4.99806H79.9883C80.9083 4.99806 81.6543 5.74402 81.6543 6.66408C81.6543 7.58414 80.9083 8.3301 79.9883 8.3301Z" fill="#4E51A6"/>
<path d="M14.9101 48.3147C14.7235 47.6016 14.5569 46.8819 14.402 46.1488L10.0703 63.9219L10.4035 67.9853C11.1297 76.6484 14.8512 84.7877 20.9277 91.0047L45.4065 81.7516C45.2733 81.71 45.135 81.68 45.0017 81.635C30.1585 76.0695 18.9394 63.6464 14.9101 48.3147Z" fill="white"/>
<path d="M45.4058 81.7515C45.2725 81.7099 45.1342 81.6799 45.001 81.6349C43.3974 81.0278 41.8268 80.3366 40.2961 79.564L18.248 87.9058C19.084 88.9899 19.9788 90.0272 20.9287 91.0129L45.4058 81.7515Z" fill="#F6F6E7"/>
<path d="M71.658 19.9573V28.3223H63.293V19.9573H71.658Z" fill="#FF8D4C"/>
<path d="M41.6695 49.9807C40.7494 49.9805 40.0037 49.2343 40.0039 48.3143C40.0041 47.8424 40.2042 47.3927 40.5549 47.0768L57.2151 32.0827C57.9109 31.4806 58.963 31.5566 59.565 32.2524C60.1504 32.9288 60.0971 33.9467 59.4443 34.5584L42.7841 49.5525C42.4782 49.828 42.0812 49.9805 41.6695 49.9807Z" fill="#FFBF41"/>
<path d="M89.9844 43.3165C89.0643 43.3165 88.3184 42.5706 88.3184 41.6505V39.9845C88.3184 39.0644 89.0643 38.3185 89.9844 38.3185C90.9044 38.3185 91.6504 39.0644 91.6504 39.9845V41.6505C91.6504 42.5706 90.9044 43.3165 89.9844 43.3165Z" fill="#FF8D4C"/>
<path d="M95.8762 40.8756C95.4341 40.8768 95.0098 40.7011 94.6983 40.3874L93.5204 39.2095C92.8813 38.5477 92.8994 37.4929 93.5613 36.8538C94.2068 36.2303 95.2304 36.2303 95.8762 36.8538L97.0541 38.0317C97.7046 38.6825 97.7044 39.7373 97.0536 40.3878C96.7415 40.7 96.3179 40.8756 95.8762 40.8756Z" fill="#FF8D4C"/>
<path d="M98.3145 34.9864H96.6484C95.7284 34.9864 94.9824 34.2405 94.9824 33.3204C94.9824 32.4003 95.7284 31.6544 96.6484 31.6544H98.3145C99.2345 31.6544 99.9805 32.4003 99.9805 33.3204C99.9805 34.2405 99.2345 34.9864 98.3145 34.9864Z" fill="#FF8D4C"/>
<path d="M94.6968 30.2749C93.7768 30.2747 93.031 29.5287 93.0313 28.6084C93.0313 28.1667 93.2068 27.7431 93.519 27.431L94.6968 26.2531C95.3587 25.6138 96.4133 25.6321 97.0526 26.2939C97.6761 26.9395 97.6761 27.963 97.0526 28.6088L95.8747 29.7867C95.5623 30.0991 95.1388 30.2749 94.6968 30.2749Z" fill="#FF8D4C"/>
<path d="M89.9844 28.3223C89.0643 28.3223 88.3184 27.5764 88.3184 26.6563V24.9903C88.3184 24.0702 89.0643 23.3243 89.9844 23.3243C90.9044 23.3243 91.6504 24.0702 91.6504 24.9903V26.6563C91.6504 27.5764 90.9044 28.3223 89.9844 28.3223Z" fill="#FF8D4C"/>
<path d="M85.2707 30.2749C84.8288 30.2749 84.4052 30.0991 84.0928 29.7867L82.915 28.6089C82.2758 27.947 82.294 26.8922 82.9558 26.2531C83.6014 25.6296 84.6249 25.6296 85.2707 26.2531L86.4486 27.431C87.0992 28.0818 87.099 29.1366 86.4482 29.7872C86.136 30.0993 85.7124 30.2749 85.2707 30.2749Z" fill="#FF8D4C"/>
<path d="M10.0156 1.66602L12.5896 6.88232L18.3457 7.71866L14.1807 11.7787L15.1636 17.5115L10.0156 14.8042L4.86764 17.5115L5.85059 11.7787L1.68555 7.71866L7.44164 6.88232L10.0156 1.66602Z" fill="#FF8D4C"/>
<path d="M99.4537 90.2415C98.6613 87.4332 96.8369 85.0285 94.3457 83.5091L93.6593 82.4795C89.8106 76.724 83.7586 72.8106 76.9309 71.6621C76.02 71.5321 75.1761 72.1652 75.0462 73.0761C74.9206 73.9562 75.5081 74.7798 76.3811 74.9474C81.3058 75.7834 85.7939 78.2853 89.0945 82.0347C86.3195 82.5339 83.8925 84.2005 82.4304 86.6112C80.6361 89.8248 81.7867 93.8842 85.0002 95.6785C88.2138 97.4728 92.2732 96.3222 94.0675 93.1087C94.7529 91.7857 95.1229 90.3219 95.1488 88.832C96.9214 91.4066 97.0632 94.7689 95.5136 97.4837C95.0442 98.275 95.3052 99.2971 96.0965 99.7665C96.8879 100.236 97.91 99.975 98.3794 99.1836C98.3944 99.1582 98.4087 99.1326 98.4225 99.1064C99.9361 96.4076 100.307 93.2155 99.4537 90.2415ZM91.162 91.4827C90.2727 93.0939 88.2458 93.6791 86.6348 92.7899C85.0235 91.9006 84.4384 89.8737 85.3276 88.2627C85.3326 88.2537 85.3376 88.2446 85.3426 88.2356C86.3257 86.6258 87.9841 85.5466 89.8542 85.3001C90.1438 85.2922 90.4306 85.3588 90.6872 85.4933C92.0933 86.278 92.1683 89.68 91.162 91.4827Z" fill="#2BB3CE"/>
<path d="M64.1957 76.3568C65.5296 76.1523 66.7658 75.5352 67.731 74.5925C69.3837 72.9414 70.8048 69.5378 68.1875 62.7121C67.8755 61.8464 66.9209 61.3976 66.0554 61.7096C65.1897 62.0215 64.7409 62.9762 65.0529 63.8417C65.0606 63.8629 65.0687 63.8839 65.077 63.905C66.5965 67.8701 66.7064 70.9022 65.3753 72.2351C63.7626 73.8444 59.7475 73.3413 54.6294 70.8922C47.7769 67.3353 41.5487 62.6875 36.1883 57.1309C23.1367 44.0794 17.7521 31.2727 21.0825 27.9423C22.1461 27.1035 23.5276 26.7811 24.8527 27.0626C25.7659 27.1751 26.5975 26.5258 26.7097 25.6126C26.8222 24.6994 26.1728 23.8679 25.2596 23.7556C25.2313 23.7521 25.2028 23.7494 25.1743 23.7473C22.8579 23.3374 20.4813 24.0128 18.7268 25.5799C12.6241 31.6908 21.9538 47.6096 33.8392 59.4883C39.4658 65.3115 46.0041 70.1783 53.1967 73.8977C54.4999 74.5214 55.8427 75.0585 57.2168 75.5054L45.3714 79.9854C31.1461 74.5608 20.4074 62.6126 16.526 47.8912C16.1261 46.3668 15.7996 44.8091 15.5547 43.2597C15.438 42.3469 14.6036 41.7015 13.691 41.8182C12.7783 41.9348 12.1329 42.7692 12.2495 43.6818C12.2535 43.7132 12.2585 43.7447 12.2643 43.7759C12.5258 45.4419 12.8757 47.108 13.3039 48.7373C17.1386 63.2725 27.2414 75.348 40.8715 81.6878L21.3874 89.06C21.2987 88.9106 21.186 88.7765 21.0542 88.6634C16.1028 84.6885 12.9963 78.8583 12.4592 72.5314L11.6812 63.17C11.62 62.2631 10.8351 61.5773 9.92811 61.6385C9.9127 61.6396 9.89729 61.6408 9.88188 61.6423C8.96495 61.7183 8.28334 62.523 8.35914 63.4399L9.13884 72.8046C9.72611 79.5668 12.8803 85.8472 17.9537 90.3561L4.05748 95.6174L6.55651 85.3614C6.77455 84.467 6.22643 83.5652 5.33199 83.3472C4.43754 83.1291 3.53581 83.6773 3.31777 84.5717L0.0673708 97.8998C-0.150669 98.7937 0.397242 99.6952 1.29106 99.9132C1.42018 99.9449 1.55242 99.9609 1.68507 99.9609C1.88645 99.9607 2.08617 99.9247 2.27484 99.8543L63.9175 76.53C64.0162 76.4824 64.1095 76.4243 64.1957 76.3568Z" fill="#0D0C22"/>
<path d="M55.6809 55.6748L49.7299 56.6744C48.8186 56.801 48.1824 57.6424 48.309 58.5539C48.4356 59.4654 49.277 60.1014 50.1885 59.9748C50.2185 59.9706 50.2485 59.9656 50.278 59.9598L56.2291 58.9685C65.1391 57.4872 74.282 58.3756 82.7404 61.5442C82.9266 61.6102 83.1228 61.6435 83.3202 61.6425C84.2402 61.6439 84.9874 60.8994 84.9889 59.9792C84.9902 59.2826 84.5576 58.6586 83.9049 58.4154C74.8997 55.0444 65.1666 54.0994 55.6809 55.6748Z" fill="#0D0C22"/>
<path d="M51.8322 50.6968C52.2277 51.5269 53.2209 51.8795 54.0514 51.4848L89.0377 34.8247C89.8643 34.4205 90.2064 33.4225 89.8022 32.596C89.4043 31.7823 88.4288 31.4356 87.6066 31.8158L52.6203 48.476C51.7895 48.8715 51.4366 49.8655 51.832 50.6964C51.832 50.6966 51.8322 50.6966 51.8322 50.6968Z" fill="#0D0C22"/>
<path d="M33.2142 48.1861C33.4168 48.2713 33.6343 48.3148 33.854 48.3144C34.5264 48.3144 35.1328 47.9104 35.3917 47.2898L37.8141 41.4837C41.8082 31.9441 42.7397 21.3993 40.4797 11.3071C40.2965 10.4054 39.417 9.82293 38.5153 10.0062C37.6135 10.1895 37.0311 11.0689 37.2143 11.9706C37.2183 11.9906 37.2229 12.0104 37.2277 12.0302C39.3379 21.4511 38.4693 31.295 34.742 40.2009L32.3179 46.0136C31.968 46.861 32.3687 47.8319 33.2142 48.1861Z" fill="#0D0C22"/>
<path d="M86.6523 64.9748C86.6523 67.7352 88.89 69.9729 91.6504 69.9729C94.4108 69.9729 96.6485 67.7352 96.6485 64.9748C96.6485 62.2144 94.4108 59.9768 91.6504 59.9768C88.89 59.9768 86.6523 62.2144 86.6523 64.9748ZM93.3164 64.9748C93.3164 65.8949 92.5705 66.6408 91.6504 66.6408C90.7303 66.6408 89.9844 65.8949 89.9844 64.9748C89.9844 64.0548 90.7303 63.3088 91.6504 63.3088C92.5705 63.3088 93.3164 64.0548 93.3164 64.9748Z" fill="#0D0C22"/>
<path d="M56.6641 18.3262C56.6641 15.5658 54.4264 13.3282 51.666 13.3282C48.9056 13.3282 46.668 15.5658 46.668 18.3262C46.668 21.0866 48.9056 23.3243 51.666 23.3243C54.4264 23.3243 56.6641 21.0866 56.6641 18.3262ZM50 18.3262C50 17.4062 50.746 16.6602 51.666 16.6602C52.5861 16.6602 53.332 17.4062 53.332 18.3262C53.332 19.2463 52.5861 19.9922 51.666 19.9922C50.746 19.9922 50 19.2463 50 18.3262Z" fill="#0D0C22"/>
<path d="M36.6719 6.66407C38.5121 6.66407 40.0039 5.17227 40.0039 3.33204C40.0039 1.4918 38.5121 0 36.6719 0C34.8316 0 33.3398 1.4918 33.3398 3.33204C33.3398 5.17227 34.8316 6.66407 36.6719 6.66407Z" fill="#0D0C22"/>
<path d="M81.6543 11.6621C81.6543 12.5822 82.4003 13.3282 83.3203 13.3282C84.2404 13.3282 84.9863 12.5822 84.9863 11.6621V9.99613C84.9863 9.07607 84.2404 8.33011 83.3203 8.33011C82.4003 8.33011 81.6543 9.07607 81.6543 9.99613V11.6621Z" fill="#0D0C22"/>
<path d="M83.3203 0C82.4003 0 81.6543 0.745959 81.6543 1.66602V3.33204C81.6543 4.25209 82.4003 4.99805 83.3203 4.99805C84.2404 4.99805 84.9863 4.25209 84.9863 3.33204V1.66602C84.9863 0.745959 84.2404 0 83.3203 0Z" fill="#0D0C22"/>
<path d="M88.3184 4.99806H86.6523C85.7323 4.99806 84.9863 5.74402 84.9863 6.66408C84.9863 7.58414 85.7323 8.3301 86.6523 8.3301H88.3184C89.2384 8.3301 89.9844 7.58414 89.9844 6.66408C89.9844 5.74402 89.2384 4.99806 88.3184 4.99806Z" fill="#0D0C22"/>
<path d="M79.9883 4.99806H78.3223C77.4022 4.99806 76.6562 5.74402 76.6562 6.66408C76.6562 7.58414 77.4022 8.3301 78.3223 8.3301H79.9883C80.9083 8.3301 81.6543 7.58414 81.6543 6.66408C81.6543 5.74402 80.9083 4.99806 79.9883 4.99806Z" fill="#0D0C22"/>
<path d="M71.657 29.9884C72.577 29.9884 73.323 29.2424 73.323 28.3223V19.9573C73.323 19.0372 72.577 18.2913 71.657 18.2913H63.2969C62.3768 18.2913 61.6309 19.0372 61.6309 19.9573V28.3223C61.6309 29.2424 62.3768 29.9884 63.2969 29.9884H71.657ZM64.9579 21.6233H69.9909V26.6563H64.9629L64.9579 21.6233Z" fill="#0D0C22"/>
<path d="M40.4348 49.429C41.0502 50.1131 42.1035 50.1687 42.7876 49.5533C42.788 49.5529 42.7884 49.5524 42.7889 49.5522L59.449 34.5581C60.1204 33.9289 60.155 32.8748 59.5259 32.2032C58.9142 31.5503 57.8963 31.497 57.2199 32.0824L40.5597 47.0765C39.8758 47.6917 39.8198 48.7448 40.4348 49.429Z" fill="#0D0C22"/>
<path d="M91.6504 41.6505V39.9845C91.6504 39.0644 90.9044 38.3185 89.9844 38.3185C89.0643 38.3185 88.3184 39.0644 88.3184 39.9845V41.6505C88.3184 42.5706 89.0643 43.3165 89.9844 43.3165C90.9044 43.3165 91.6504 42.5706 91.6504 41.6505Z" fill="#0D0C22"/>
<path d="M93.5223 39.2097L94.7002 40.3876C95.362 41.0269 96.4166 41.0086 97.0559 40.3468C97.6794 39.7012 97.6794 38.6776 97.0559 38.0318L95.8781 36.8539C95.2162 36.2146 94.1616 36.2329 93.5223 36.8948C92.8988 37.5406 92.8988 38.5641 93.5223 39.2097Z" fill="#0D0C22"/>
<path d="M98.3145 31.6544H96.6484C95.7284 31.6544 94.9824 32.4004 94.9824 33.3204C94.9824 34.2405 95.7284 34.9865 96.6484 34.9865H98.3145C99.2345 34.9865 99.9805 34.2405 99.9805 33.3204C99.9805 32.4004 99.2345 31.6544 98.3145 31.6544Z" fill="#0D0C22"/>
<path d="M94.7008 30.2749C95.1427 30.2749 95.5663 30.0992 95.8787 29.7868L97.0566 28.6089C97.6957 27.9471 97.6776 26.8923 97.0158 26.2532C96.3702 25.6296 95.3466 25.6296 94.7008 26.2532L93.523 27.431C92.8724 28.0818 92.8726 29.1366 93.5234 29.7872C93.8358 30.0994 94.2591 30.2749 94.7008 30.2749Z" fill="#0D0C22"/>
<path d="M89.9844 23.3243C89.0643 23.3243 88.3184 24.0703 88.3184 24.9903V26.6563C88.3184 27.5764 89.0643 28.3224 89.9844 28.3224C90.9044 28.3224 91.6504 27.5764 91.6504 26.6563V24.9903C91.6504 24.0703 90.9044 23.3243 89.9844 23.3243Z" fill="#0D0C22"/>
<path d="M85.2765 26.2531C84.6147 25.6138 83.5601 25.6321 82.9208 26.2939C82.2972 26.9395 82.2972 27.963 82.9208 28.6088L84.0986 29.7867C84.7604 30.426 85.815 30.4077 86.4544 29.7459C87.0779 29.1003 87.0779 28.0768 86.4544 27.431L85.2765 26.2531Z" fill="#0D0C22"/>
<path d="M19.9352 7.20372C19.7388 6.60062 19.2169 6.16142 18.589 6.07083L13.7009 5.35944L11.5151 0.929499C11.0291 0.104195 9.96593 -0.170906 9.14062 0.315155C8.88697 0.464472 8.6756 0.675848 8.52628 0.929499L6.34046 5.35944L1.4507 6.07083C0.540224 6.2039 -0.0899474 7.04982 0.0431258 7.9603C0.0960218 8.32183 0.266164 8.65607 0.527729 8.91139L4.06468 12.36L3.23168 17.2298C3.07278 18.1361 3.67858 18.9995 4.5849 19.1584C4.94767 19.222 5.32128 19.1636 5.6474 18.9925L10.0157 16.6867L14.389 18.9858C15.2035 19.414 16.2108 19.101 16.639 18.2865C16.8095 17.9622 16.8682 17.5909 16.8064 17.2298L15.9734 12.36L19.512 8.91139C19.9666 8.46906 20.1307 7.80703 19.9352 7.20372ZM13.0229 10.5857C12.6305 10.9679 12.4512 11.5185 12.543 12.0585L12.9562 14.4659L10.7954 13.328C10.31 13.0727 9.72977 13.0727 9.24433 13.328L7.07851 14.4642L7.49335 12.0568C7.5854 11.5181 7.40734 10.9683 7.01687 10.5857L5.27088 8.8814L7.68327 8.52987C8.2266 8.45157 8.69642 8.11066 8.93945 7.61856L10.0157 5.43108L11.0953 7.61856C11.3377 8.10983 11.806 8.45053 12.3481 8.52987L14.7622 8.8814L13.0229 10.5857Z" fill="#0D0C22"/>
<path d="M94.3509 83.509L93.6645 82.4794C89.8142 76.725 83.7621 72.8119 76.9344 71.662C76.0312 71.4858 75.1563 72.0751 74.9804 72.9783C74.8042 73.8815 75.3935 74.7564 76.2967 74.9324C76.3265 74.9382 76.3563 74.9432 76.3863 74.9474C81.3106 75.7831 85.7982 78.285 89.098 82.0346C86.3236 82.5354 83.8973 84.2017 82.4339 86.6112C80.6396 89.8251 81.7906 93.885 85.0046 95.6793C88.2185 97.4736 92.2784 96.3226 94.0727 93.1086C94.7549 91.7846 95.1231 90.3212 95.1489 88.832C95.6342 89.5436 96.0067 90.3258 96.2535 91.1511C96.861 93.2756 96.5946 95.5548 95.5138 97.4819C95.0444 98.2733 95.3053 99.2954 96.0967 99.7648C96.8881 100.234 97.9102 99.9732 98.3796 99.1819C98.3946 99.1565 98.4089 99.1309 98.4227 99.1046C101.47 93.6555 99.6743 86.7725 94.3526 83.5074L94.3509 83.509ZM91.1672 91.4826C90.2708 93.0899 88.2414 93.6661 86.6341 92.7698C85.8617 92.3391 85.2922 91.6188 85.0512 90.7679C84.8071 89.918 84.914 89.0059 85.3478 88.2355C86.3305 86.6253 87.989 85.5462 89.8593 85.3C90.149 85.2923 90.4358 85.3589 90.6924 85.4933C92.0968 86.278 92.1718 89.68 91.1672 91.4826Z" fill="#0D0C22"/>
</svg>
